<svg width="24" height="25" viewBox="0 0 24 25" fill="none" xmlns="http://www.w3.org/2000/svg">
<g id="FAQ">
<path id="Vector" d="M12 11.7394V11.5295C12 10.8495 12.42 10.4895 12.84 10.1995C13.25 9.91946 13.66 9.55948 13.66 8.89948C13.66 7.97948 12.92 7.23944 12 7.23944C11.08 7.23944 10.34 7.97948 10.34 8.89948M11.9955 14.1295H12.0045M17 18.8095H13L8.54999 21.7695C7.88999 22.2095 7 21.7395 7 20.9395V18.8095C4 18.8095 2 16.8095 2 13.8095V7.80945C2 4.80945 4 2.80945 7 2.80945H17C20 2.80945 22 4.80945 22 7.80945V13.8095C22 16.8095 20 18.8095 17 18.8095Z" stroke="#191921" stroke-width="1.5" stroke-linecap="round" stroke-linejoin="round"/>
</g>
</svg>
