<svg width="24" height="25" viewBox="0 0 24 25" fill="none" xmlns="http://www.w3.org/2000/svg">
<g id="Question">
<g id="Group">
<path id="Union" fill-rule="evenodd" clip-rule="evenodd" d="M7.9983 4.12543C5.64994 4.12543 3.74622 6.02915 3.74622 8.37751V16.3808C3.74622 18.7292 5.64994 20.6329 7.9983 20.6329H16.0016C18.35 20.6329 20.2537 18.7292 20.2537 16.3808V8.37751C20.2537 6.02915 18.35 4.12543 16.0016 4.12543H7.9983ZM2.24622 8.37751C2.24622 5.20072 4.82151 2.62543 7.9983 2.62543H16.0016C19.1784 2.62543 21.7537 5.20072 21.7537 8.37751V16.3808C21.7537 19.5576 19.1784 22.1329 16.0016 22.1329H7.9983C4.82151 22.1329 2.24622 19.5576 2.24622 16.3808V8.37751ZM10.7491 10.3782C10.7491 9.6874 11.3092 9.12738 12 9.12738C12.6908 9.12738 13.2508 9.6874 13.2508 10.3782C13.2508 11.069 12.6908 11.629 12 11.629C11.6213 11.629 11.3081 11.9097 11.2572 12.2744C11.2524 12.3087 11.2499 12.3437 11.2499 12.3793V13.88C11.2499 14.2942 11.5857 14.63 11.9999 14.63C12.4142 14.63 12.7499 14.2942 12.7499 13.88V13.0256C13.9047 12.6991 14.7508 11.6375 14.7508 10.3782C14.7508 8.85897 13.5192 7.62738 12 7.62738C10.4807 7.62738 9.24915 8.85897 9.24915 10.3782C9.24915 10.7924 9.58493 11.1282 9.99915 11.1282C10.4134 11.1282 10.7491 10.7924 10.7491 10.3782ZM12 15.581C11.5581 15.581 11.2 15.9392 11.2 16.381C11.2 16.8229 11.5581 17.181 12 17.181C12.4418 17.181 12.8 16.8229 12.8 16.381C12.8 15.9392 12.4418 15.581 12 15.581Z" fill="#191921"/>
</g>
</g>
</svg>
