<svg width="24" height="25" viewBox="0 0 24 25" fill="none" xmlns="http://www.w3.org/2000/svg">
<g id="Rules">
<path id="Vector (Stroke)" fill-rule="evenodd" clip-rule="evenodd" d="M10.25 3.12946C9.42421 3.12946 8.75 3.80367 8.75 4.62946C8.75 5.04231 8.91503 5.41385 9.1903 5.68912C9.46559 5.96441 9.83716 6.12946 10.25 6.12946H13.75C14.5758 6.12946 15.25 5.45524 15.25 4.62946C15.25 4.2166 15.085 3.84506 14.8097 3.56979C14.5344 3.2945 14.1628 3.12946 13.75 3.12946H10.25ZM7.33907 3.90241C7.66488 2.59833 8.84642 1.62946 10.25 1.62946H13.75C14.5772 1.62946 15.3256 1.96441 15.8704 2.50913C16.25 2.88873 16.5277 3.36727 16.6612 3.90243C17.6113 3.97197 18.5531 4.21451 19.3044 4.83086C20.2612 5.61577 20.75 6.86995 20.75 8.62946V18.3795C20.75 20.033 20.2509 21.2673 19.3189 22.0721C18.4076 22.8591 17.2029 23.1295 16 23.1295H8C6.79713 23.1295 5.59244 22.8591 4.68106 22.0721C3.74912 21.2673 3.25 20.033 3.25 18.3795V8.62946C3.25 6.86995 3.7388 5.61577 4.69556 4.83086C5.44692 4.21446 6.38889 3.97193 7.33907 3.90241ZM7.35173 5.4063C6.62315 5.47112 6.05468 5.65605 5.64694 5.99055C5.1562 6.39314 4.75 7.13896 4.75 8.62946V18.3795C4.75 19.7259 5.14588 20.4916 5.66144 20.9368C6.19756 21.3998 6.99287 21.6295 8 21.6295H16C17.0071 21.6295 17.8024 21.3998 18.3386 20.9368C18.8541 20.4916 19.25 19.7259 19.25 18.3795V8.62946C19.25 7.13896 18.8438 6.39314 18.3531 5.99055C17.9453 5.65601 17.3767 5.47108 16.648 5.40628C16.3049 6.68516 15.1357 7.62946 13.75 7.62946H10.25C9.42284 7.62946 8.67436 7.2945 8.12964 6.74978C7.76186 6.382 7.48972 5.92134 7.35173 5.4063ZM7.25 13.3795C7.25 12.9652 7.58579 12.6295 8 12.6295H12C12.4142 12.6295 12.75 12.9652 12.75 13.3795C12.75 13.7937 12.4142 14.1295 12 14.1295H8C7.58579 14.1295 7.25 13.7937 7.25 13.3795ZM7.25 17.3795C7.25 16.9652 7.58579 16.6295 8 16.6295H16C16.4142 16.6295 16.75 16.9652 16.75 17.3795C16.75 17.7937 16.4142 18.1295 16 18.1295H8C7.58579 18.1295 7.25 17.7937 7.25 17.3795Z" fill="#191921"/>
</g>
</svg>
