<svg width="24" height="25" viewBox="0 0 24 25" fill="none" xmlns="http://www.w3.org/2000/svg">
<g id="Question">
<path id="Vector (Stroke)" fill-rule="evenodd" clip-rule="evenodd" d="M16.7297 3.46728C17.058 3.3196 17.415 3.24979 17.7641 3.24979C18.6459 3.24979 19.451 3.6032 20.1434 4.24368C20.6941 4.73508 21.1043 5.29915 21.3667 5.92718C21.6241 6.53469 21.75 7.18681 21.75 7.85879C21.75 8.8671 21.503 9.89779 21.0359 10.9441L21.0349 10.9463C20.5745 11.9683 19.9476 12.9862 19.1807 13.9916L19.178 13.9951C18.4055 14.9957 17.5415 15.9504 16.5868 16.8594L16.5816 16.8644C15.6175 17.7649 14.6061 18.5786 13.5386 19.3139L13.5377 19.3146C12.4692 20.0482 11.3844 20.6363 10.2921 21.0752C9.18268 21.521 8.10513 21.7498 7.07411 21.7498C6.35444 21.7498 5.67579 21.6235 5.04414 21.3756C4.38388 21.1201 3.80766 20.7237 3.29782 20.1938C2.98207 19.8652 2.74037 19.5133 2.55472 19.1426C2.35073 18.7352 2.25 18.3061 2.25 17.8803C2.25 17.5203 2.33364 17.2076 2.45376 16.9244L2.45894 16.9122L2.46456 16.9002C2.63236 16.5405 2.89831 16.2626 3.22598 16.0479L6.21234 14.0484L6.21858 14.0444C6.47183 13.882 6.72513 13.7446 6.98443 13.6446C7.25781 13.5391 7.5295 13.4838 7.80421 13.4838C8.16568 13.4838 8.49379 13.5802 8.79672 13.75C9.0856 13.8958 9.35545 14.105 9.60573 14.3408L10.2008 14.8946C10.2091 14.8911 10.2179 14.8874 10.227 14.8837C10.4673 14.7602 10.8004 14.543 11.2301 14.2002C11.6861 13.835 12.1382 13.4338 12.6165 12.9912C13.0684 12.5566 13.4874 12.1205 13.8827 11.6898C14.2192 11.3146 14.4448 11.0215 14.5785 10.8105L14.0263 10.2693C13.7809 10.0371 13.5648 9.78583 13.4046 9.5213C13.2138 9.22188 13.1023 8.88232 13.1023 8.52179C13.1023 8.22911 13.1814 7.94609 13.293 7.69894C13.4026 7.44771 13.5526 7.20263 13.7412 6.95538L15.8284 4.18106C16.0761 3.84525 16.3912 3.61553 16.7297 3.46728ZM17.7641 4.74979C17.6103 4.74979 17.4644 4.78126 17.3433 4.83605L17.3334 4.84055C17.2064 4.8958 17.1099 4.97021 17.0347 5.07262L17.0295 5.07972L14.9351 7.86343C14.8015 8.0385 14.7186 8.1818 14.6665 8.30177L14.6614 8.31364C14.6121 8.42208 14.6023 8.49382 14.6023 8.52179C14.6023 8.56495 14.6143 8.62958 14.6717 8.71855L14.6785 8.72903L14.6849 8.73972C14.7572 8.86039 14.8791 9.01175 15.0609 9.18314L15.0662 9.18812L15.7523 9.86068C16.0049 10.1021 16.1256 10.4111 16.1256 10.7403C16.1256 10.8837 16.1052 11.0083 16.0735 11.128L16.062 11.1713L16.0454 11.2129C16.0266 11.2602 16.0077 11.3023 15.9965 11.3271C15.9954 11.3297 15.9943 11.332 15.9934 11.3342C15.9861 11.3503 15.9831 11.3575 15.9822 11.3595L15.9604 11.4212L15.9256 11.4813C15.7254 11.8275 15.4065 12.2376 14.9964 12.6947L14.9908 12.7009C14.5772 13.1516 14.1334 13.6137 13.6509 14.0775L13.6407 14.0873C13.1478 14.5436 12.6643 14.9734 12.1668 15.3717L12.1658 15.3725C11.6744 15.7647 11.2411 16.0542 10.8703 16.2393L10.8359 16.2565L10.8 16.27C10.7996 16.2702 10.7984 16.2707 10.7973 16.2711L10.789 16.2745L10.7585 16.2875L10.7514 16.2906C10.727 16.3012 10.6919 16.3164 10.6541 16.3316L10.6387 16.3379L10.6231 16.3434C10.4461 16.406 10.2833 16.4203 10.1477 16.4203C9.80007 16.4203 9.50068 16.2941 9.26573 16.0734L8.5822 15.4373L8.57858 15.4339C8.38492 15.2513 8.22995 15.1428 8.11306 15.0852L8.09157 15.0747L8.07079 15.0627C7.96488 15.0019 7.88511 14.9838 7.80421 14.9838C7.7364 14.9838 7.64755 14.9965 7.52433 15.044C7.38843 15.0964 7.229 15.1788 7.0343 15.3033L4.04999 17.3013C3.91791 17.3876 3.85975 17.4624 3.82868 17.5245C3.77289 17.6596 3.75 17.7682 3.75 17.8803C3.75 18.0665 3.79348 18.2663 3.89596 18.471C4.0167 18.7121 4.17183 18.9384 4.37869 19.1538C4.75167 19.5414 5.14828 19.8077 5.58685 19.9772L5.59076 19.9787C6.04018 20.1553 6.53262 20.2498 7.07411 20.2498C7.88184 20.2498 8.76925 20.0706 9.73289 19.6834C10.7137 19.2893 11.7019 18.7555 12.6883 18.0782C13.6928 17.3863 14.6453 16.62 15.5551 15.7706C16.4555 14.913 17.2666 14.0161 17.9893 13.0802C18.6998 12.1486 19.2621 11.2293 19.6668 10.3312C20.0645 9.43998 20.25 8.6181 20.25 7.85879C20.25 7.37542 20.1598 6.92315 19.9851 6.51115L19.9833 6.50707C19.814 6.10127 19.5415 5.71589 19.1404 5.35913L19.1345 5.35386L19.1287 5.34846C18.6686 4.92137 18.2139 4.74979 17.7641 4.74979Z" fill="#191921"/>
</g>
</svg>
