<svg width="12" height="14" viewBox="0 0 12 14" fill="none" xmlns="http://www.w3.org/2000/svg">
<path d="M0.666626 11.6666V10.6666H2.06663V5.56665C2.06663 4.63331 2.34163 3.80276 2.89163 3.07498C3.44163 2.3472 4.16663 1.88887 5.06663 1.69998V1.21665C5.06663 0.961091 5.15829 0.74998 5.34163 0.583313C5.52496 0.416646 5.7444 0.333313 5.99996 0.333313C6.25552 0.333313 6.47496 0.416646 6.65829 0.583313C6.84163 0.74998 6.93329 0.961091 6.93329 1.21665V1.69998C7.83329 1.88887 8.56107 2.3472 9.11663 3.07498C9.67218 3.80276 9.94996 4.63331 9.94996 5.56665V10.6666H11.3333V11.6666H0.666626ZM5.99996 13.6666C5.6444 13.6666 5.33329 13.5361 5.06663 13.275C4.79996 13.0139 4.66663 12.7 4.66663 12.3333H7.33329C7.33329 12.7 7.20274 13.0139 6.94163 13.275C6.68052 13.5361 6.36663 13.6666 5.99996 13.6666ZM3.06663 10.6666H8.94996V5.56665C8.94996 4.74442 8.66663 4.04442 8.09996 3.46665C7.53329 2.88887 6.83885 2.59998 6.01663 2.59998C5.1944 2.59998 4.49718 2.88887 3.92496 3.46665C3.35274 4.04442 3.06663 4.74442 3.06663 5.56665V10.6666Z" fill="white"/>
</svg>
