<svg width="24" height="24" viewBox="0 0 24 24" fill="none" xmlns="http://www.w3.org/2000/svg">
<path d="M22 15V9C22 4 20 2 15 2H9C4 2 2 4 2 9V15C2 20 4 22 9 22H15C20 22 22 20 22 15Z" stroke="#003545" stroke-linecap="round" stroke-linejoin="round"/>
<path d="M2.52002 7.10986H21.48" stroke="#003545" stroke-linecap="round" stroke-linejoin="round"/>
<path d="M8.52002 2.10986V6.96986" stroke="#003545" stroke-linecap="round" stroke-linejoin="round"/>
<path d="M15.48 2.10986V6.51986" stroke="#003545" stroke-linecap="round" stroke-linejoin="round"/>
<path d="M9.75 13.4501V12.2501C9.75 10.7101 10.84 10.0801 12.17 10.8501L13.21 11.4501L14.25 12.0501C15.58 12.8201 15.58 14.0801 14.25 14.8501L13.21 15.4501L12.17 16.0501C10.84 16.8201 9.75 16.1901 9.75 14.6501V13.4501V13.4501Z" stroke="#003545" stroke-miterlimit="10" stroke-linecap="round" stroke-linejoin="round"/>
</svg>
