<svg width="16" height="16" viewBox="0 0 16 16" fill="none" xmlns="http://www.w3.org/2000/svg">
<g id="Icons">
<path id="Vector" d="M11.9773 9.06136V6.99318H9.90909V6.03864H11.9773V3.97045H12.9318V6.03864H15V6.99318H12.9318V9.06136H11.9773ZM6.09091 7.77273C5.39091 7.77273 4.81818 7.55 4.37273 7.10455C3.92727 6.65909 3.70455 6.08636 3.70455 5.38636C3.70455 4.68636 3.92727 4.11364 4.37273 3.66818C4.81818 3.22273 5.39091 3 6.09091 3C6.79091 3 7.36364 3.22273 7.80909 3.66818C8.25455 4.11364 8.47727 4.68636 8.47727 5.38636C8.47727 6.08636 8.25455 6.65909 7.80909 7.10455C7.36364 7.55 6.79091 7.77273 6.09091 7.77273ZM1 12.8795V11.3841C1 11.0129 1.0928 10.6761 1.27841 10.3739C1.46402 10.0716 1.73182 9.84621 2.08182 9.69773C2.87727 9.34773 3.58437 9.10114 4.2031 8.95795C4.82185 8.81477 5.45026 8.74318 6.08833 8.74318C6.72641 8.74318 7.35303 8.81477 7.96818 8.95795C8.58333 9.10114 9.28864 9.34773 10.0841 9.69773C10.4341 9.85682 10.7045 10.0848 10.8955 10.3818C11.0864 10.6788 11.1818 11.0129 11.1818 11.3841V12.8795H1ZM1.95455 11.925H10.2273V11.3841C10.2273 11.2144 10.1795 11.0527 10.0841 10.8989C9.98864 10.7451 9.86136 10.6311 9.70227 10.5568C8.94924 10.2068 8.31288 9.97614 7.79318 9.86477C7.27348 9.75341 6.70606 9.69773 6.09091 9.69773C5.47576 9.69773 4.90568 9.75341 4.38068 9.86477C3.85568 9.97614 3.21667 10.2068 2.46364 10.5568C2.30455 10.6311 2.17992 10.7451 2.08977 10.8989C1.99962 11.0527 1.95455 11.2144 1.95455 11.3841V11.925ZM6.09091 6.81818C6.50455 6.81818 6.84659 6.68295 7.11705 6.4125C7.3875 6.14205 7.52273 5.8 7.52273 5.38636C7.52273 4.97273 7.3875 4.63068 7.11705 4.36023C6.84659 4.08977 6.50455 3.95455 6.09091 3.95455C5.67727 3.95455 5.33523 4.08977 5.06477 4.36023C4.79432 4.63068 4.65909 4.97273 4.65909 5.38636C4.65909 5.8 4.79432 6.14205 5.06477 6.4125C5.33523 6.68295 5.67727 6.81818 6.09091 6.81818Z" fill="white"/>
</g>
</svg>
