<svg width="16" height="16" viewBox="0 0 16 16" fill="none" xmlns="http://www.w3.org/2000/svg">
<g id="Icons">
<g id="Vector">
<path d="M6.0839 7.76616C5.38486 7.76616 4.81293 7.54374 4.36808 7.09889C3.92324 6.65405 3.70082 6.08211 3.70082 5.38308C3.70082 4.68404 3.92324 4.1121 4.36808 3.66726C4.81293 3.22242 5.38486 3 6.0839 3C6.78294 3 7.35488 3.22242 7.79972 3.66726C8.24456 4.1121 8.46698 4.68404 8.46698 5.38308C8.46698 6.08211 8.24456 6.65405 7.79972 7.09889C7.35488 7.54374 6.78294 7.76616 6.0839 7.76616ZM1 12.8659V11.3725C1 11.0018 1.09268 10.6656 1.27803 10.3637C1.46338 10.0619 1.73081 9.83679 2.08033 9.68851C2.87469 9.33899 3.58081 9.09274 4.19869 8.94975C4.81659 8.80677 5.44413 8.73527 6.08133 8.73527C6.71853 8.73527 7.34428 8.80677 7.95859 8.94975C8.57289 9.09274 9.27723 9.33899 10.0716 9.68851C10.4211 9.84738 10.6912 10.0751 10.8818 10.3717C11.0725 10.6682 11.1678 11.0018 11.1678 11.3725V12.8659H1ZM1.95323 11.9127H10.2146V11.3725C10.2146 11.2031 10.1669 11.0416 10.0716 10.888C9.97626 10.7344 9.84916 10.6206 9.69029 10.5464C8.9383 10.1969 8.30281 9.96653 7.78383 9.85532C7.26485 9.74411 6.6982 9.68851 6.0839 9.68851C5.4696 9.68851 4.9003 9.74411 4.37603 9.85532C3.85175 9.96653 3.21361 10.1969 2.46162 10.5464C2.30275 10.6206 2.1783 10.7344 2.08827 10.888C1.99824 11.0416 1.95323 11.2031 1.95323 11.3725V11.9127ZM6.0839 6.81292C6.49697 6.81292 6.83854 6.67788 7.10862 6.4078C7.37871 6.13772 7.51375 5.79614 7.51375 5.38308C7.51375 4.97001 7.37871 4.62844 7.10862 4.35835C6.83854 4.08827 6.49697 3.95323 6.0839 3.95323C5.67083 3.95323 5.32926 4.08827 5.05918 4.35835C4.78909 4.62844 4.65405 4.97001 4.65405 5.38308C4.65405 5.79614 4.78909 6.13772 5.05918 6.4078C5.32926 6.67788 5.67083 6.81292 6.0839 6.81292Z" fill="#008EFF"/>
<path fill-rule="evenodd" clip-rule="evenodd" d="M14.326 4.90308L15 5.57711L11.4855 9.09157L9.55981 7.16583L10.2338 6.49179L11.4855 7.74349L14.326 4.90308Z" fill="#008EFF"/>
</g>
</g>
</svg>
