<svg width="25" height="24" viewBox="0 0 25 24" fill="none" xmlns="http://www.w3.org/2000/svg">
<rect width="25" height="24" fill="#D3D3D3"/>
<g id="iPhone 14 - 2" clip-path="url(#clip0_0_1)">
<rect width="390" height="844" transform="translate(-216 -229)" fill="#F9FAFB"/>
<g id="Frame 17">
<rect x="-74.5" y="-6" width="107" height="36" rx="8" fill="#FCF2E4"/>
<g id="Frame 18">
<g id="Frame 16">
<path id="Vector 2" d="M5.23289 11.8751L18.5498 0.520668C18.9603 0.170669 19.5576 0.629059 19.3256 1.11611L15.5918 8.95724C15.4574 9.23951 15.6121 9.57451 15.9141 9.65525L20.0239 10.7539C20.4133 10.858 20.5258 11.3564 20.2189 11.6177L6.49074 23.3052C6.07099 23.6625 5.46662 23.1772 5.72488 22.6902L10.0361 14.5605C10.1876 14.2748 10.0321 13.9225 9.71891 13.842L5.43278 12.7398C5.04049 12.639 4.92467 12.1379 5.23289 11.8751Z" fill="#FFAB07"/>
</g>
</g>
</g>
</g>
<defs>
<clipPath id="clip0_0_1">
<rect width="390" height="844" fill="white" transform="translate(-216 -229)"/>
</clipPath>
</defs>
</svg>
