<svg width="22" height="21" viewBox="0 0 22 21" fill="none" xmlns="http://www.w3.org/2000/svg">
<path id="Vector (Stroke)" fill-rule="evenodd" clip-rule="evenodd" d="M8.84346 1.95976C8.57579 1.51381 8.01208 1.37509 7.59346 1.62414L7.58255 1.63063L5.8525 2.62054C5.30513 2.93332 5.11629 3.64247 5.42939 4.18438L4.77999 4.55959L5.42887 4.18348C5.96394 5.10662 6.10778 6.1184 5.62981 6.94781C5.15191 7.7771 4.20478 8.15959 3.13999 8.15959C2.50677 8.15959 1.98999 8.68123 1.98999 9.30959V11.0696C1.98999 11.6979 2.50677 12.2196 3.13999 12.2196C4.20478 12.2196 5.15191 12.6021 5.62981 13.4314C6.10772 14.2607 5.96397 15.2723 5.42908 16.1953C5.11641 16.7372 5.3049 17.4457 5.85209 17.7584L7.59351 18.7549C8.01213 19.004 8.57577 18.8654 8.84344 18.4195L8.95092 18.2338C9.48579 17.311 10.292 16.6821 11.2487 16.6821C12.2062 16.6821 13.0099 17.3115 13.5399 18.2353C13.5402 18.2358 13.5404 18.2362 13.5407 18.2366L13.6465 18.4194C13.9142 18.8654 14.4779 19.0041 14.8965 18.755L14.9074 18.7485L16.6375 17.7586C17.1834 17.4467 17.3751 16.7474 17.0598 16.1934C16.5258 15.2709 16.3826 14.2601 16.8602 13.4314C17.3381 12.6021 18.2852 12.2196 19.35 12.2196C19.9832 12.2196 20.5 11.6979 20.5 11.0696V9.30959C20.5 8.67636 19.9783 8.15959 19.35 8.15959C18.2852 8.15959 17.3381 7.7771 16.8602 6.94781C16.3823 6.11856 16.526 5.10701 17.0608 4.18402C17.3736 3.64216 17.1851 2.93348 16.6379 2.62077L14.8965 1.62423C14.4778 1.37518 13.9142 1.51381 13.6465 1.95976L13.5391 2.14537C13.0042 3.06817 12.198 3.69709 11.2412 3.69709C10.2839 3.69709 9.4802 3.06783 8.9502 2.14412C8.94991 2.14361 8.94961 2.1431 8.94932 2.14258L8.84346 1.95976ZM6.83247 0.331501C7.9919 -0.353863 9.46256 0.0666126 10.1345 1.19612L10.1391 1.20378L10.2491 1.39381L10.2507 1.39659C10.6207 2.04205 11.0066 2.19709 11.2412 2.19709C11.477 2.19709 11.8659 2.04073 12.2409 1.39381C12.2409 1.39392 12.241 1.3937 12.2409 1.39381L12.3554 1.19609C13.0274 0.0665802 14.4981 -0.353867 15.6575 0.33151L17.3821 1.3184C18.6547 2.04562 19.0863 3.6767 18.3594 4.93479L18.3589 4.93569C17.9839 5.58256 18.0428 5.99577 18.1598 6.19886C18.2769 6.40207 18.6048 6.65959 19.35 6.65959C20.8016 6.65959 22 7.84281 22 9.30959V11.0696C22 12.5212 20.8168 13.7196 19.35 13.7196C18.6048 13.7196 18.2769 13.9771 18.1598 14.1803C18.0428 14.3834 17.9839 14.7966 18.3589 15.4435L18.3612 15.4475C19.0844 16.7131 18.6557 18.3327 17.3825 19.0605C17.3824 19.0606 17.3826 19.0605 17.3825 19.0605L15.6574 20.0477C14.498 20.733 13.0274 20.3125 12.3554 19.1831L12.3509 19.1754L12.2409 18.9854L12.2393 18.9826C11.8693 18.3371 11.4834 18.1821 11.2487 18.1821C11.013 18.1821 10.6241 18.3384 10.2491 18.9854C10.249 18.9855 10.2491 18.9853 10.2491 18.9854L10.1346 19.1831C9.46262 20.3126 7.99198 20.733 6.83256 20.0477L5.10789 19.0608C5.10775 19.0607 5.10802 19.0608 5.10789 19.0608C3.83557 18.3334 3.40377 16.7023 4.13059 15.4444L4.13111 15.4435C4.50605 14.7966 4.4472 14.3834 4.33017 14.1803C4.21307 13.9771 3.8852 13.7196 3.13999 13.7196C1.67321 13.7196 0.48999 12.5212 0.48999 11.0696V9.30959C0.48999 7.85794 1.67321 6.65959 3.13999 6.65959C3.8852 6.65959 4.21307 6.40207 4.33017 6.19886C4.4472 5.99577 4.50605 5.58256 4.13111 4.93569L4.13059 4.93479C3.40377 3.67684 3.83517 2.04597 5.10748 1.31864L6.83247 0.331501ZM11.24 7.93916C9.99735 7.93916 8.98999 8.94652 8.98999 10.1892C8.98999 11.4318 9.99735 12.4392 11.24 12.4392C12.4826 12.4392 13.49 11.4318 13.49 10.1892C13.49 8.94652 12.4826 7.93916 11.24 7.93916ZM7.48999 10.1892C7.48999 8.11809 9.16892 6.43916 11.24 6.43916C13.3111 6.43916 14.99 8.11809 14.99 10.1892C14.99 12.2602 13.3111 13.9392 11.24 13.9392C9.16892 13.9392 7.48999 12.2602 7.48999 10.1892Z" fill="#191921"/>
</svg>
